# xmcd
# 
# Track frame offsets:
#     150
#     10586
#     20699
#     32910
#     43495
#     58235
#     69787
#     75499
#     88326
#     97874
#     109627
#     124106
#     135337
#     145715
#     156103
#     165205
#     178226
#     188739
#     199420
#     208289
#     220625
#     235631
#     249113
#     261822
#     271506
#     285125
#     295110
#     308798
#     318122
#     333322
# 
# Disc length: 4563
# 
# Revision: 1
# Processed by: cddbd v1.5.2PL0 Copyright (c) Steve Scherf et al.
# Submitted via: BonkEnc v1.0beta4
# 
DISCID=9411d11e
DTITLE=Honza Vycital and Greenhorns - Honza Vycital and Greenhorns  CD 2
DYEAR=2002
DGENRE=Country
TTITLE0=Kdyz u nas Pete Seeger hral
TTITLE1=Par tech fotek starych
TTITLE2=Stringybark Creek
TTITLE3=Sentimentalni cesta
TTITLE4=Cadillac
TTITLE5=Holka z Danvillu
TTITLE6=Santa Claus
TTITLE7=Prazdna naruc
TTITLE8=Zvireci farma
TTITLE9=Billy The Kid
TTITLE10=Sterk a sul s peprem
TTITLE11=Milacku vrat se a sjedem to znova
TTITLE12=Nevyzrad to Marii
TTITLE13=Billy
TTITLE14=Tam za morem piva
TTITLE15=Hraci
TTITLE16=Casey Jones
TTITLE17=Ja opoustim Cheyenne
TTITLE18=Dva tulaci
TTITLE19=Neklaunova zpoved
TTITLE20=Whisky plnej dzban
TTITLE21=Hvezda tva, indianska
TTITLE22=Veteran
TTITLE23=Frankie a Johnny
TTITLE24=Jen vzpominky postmistrovic kluka
TTITLE25=Mir v dusi
TTITLE26=Vides svet ze strech mrakodrapu
TTITLE27=Pojd se mnou par dni nadherne zit
TTITLE28=Ameriko, tve hvezdy sviti dal
TTITLE29=Tvou lasku nehledam
EXTD=
EXTT0=
EXTT1=
EXTT2=
EXTT3=
EXTT4=
EXTT5=
EXTT6=
EXTT7=
EXTT8=
EXTT9=
EXTT10=
EXTT11=
EXTT12=
EXTT13=
EXTT14=
EXTT15=
EXTT16=
EXTT17=
EXTT18=
EXTT19=
EXTT20=
EXTT21=
EXTT22=
EXTT23=
EXTT24=
EXTT25=
EXTT26=
EXTT27=
EXTT28=
EXTT29=
PLAYORDER=
